<svg xmlns="http://www.w3.org/2000/svg" version="1.1" xmlns:xlink="http://www.w3.org/1999/xlink" xmlns:svgjs="http://svgjs.com/svgjs" width="1920" height="1080" preserveAspectRatio="none" viewBox="0 0 1920 1080"><g mask="url(&quot;#SvgjsMask1000&quot;)" fill="none"><rect width="1920" height="1080" x="0" y="0" fill="#1e3266"></rect><path d="M1952 1080L0 1080 L0 665.01Q4.08 573.09, 96 577.16Q138.64 523.8, 192 566.44Q307.54 521.98, 352 637.52Q408.24 533.76, 512 590Q535.23 517.23, 608 540.46Q661.36 497.82, 704 551.17Q825.7 512.87, 864 634.56Q974.65 585.21, 1024 695.87Q1049.08 624.94, 1120 650.02Q1145.34 579.36, 1216 604.7Q1241.01 533.71, 1312 558.72Q1375.08 525.8, 1408 588.88Q1516.72 537.6, 1568 646.32Q1631.98 614.3, 1664 678.28Q1670.92 589.2, 1760 596.12Q1786.14 526.26, 1856 552.4Q1910.16 510.57, 1952 564.73z" fill="#182f5d"></path><path d="M2016 1080L0 1080 L0 699.58Q70.08 673.66, 96 743.74Q113.01 664.75, 192 681.76Q251.2 644.96, 288 704.16Q347.88 668.04, 384 727.93Q406.69 654.62, 480 677.3Q567.09 604.39, 640 691.48Q803.87 695.35, 800 859.21Q789.28 688.49, 960 677.77Q1110.76 668.53, 1120 819.3Q1188.88 728.17, 1280 797.05Q1302.96 724.01, 1376 746.97Q1471.09 682.06, 1536 777.14Q1624.26 705.4, 1696 793.66Q1756.11 693.76, 1856 753.87Q1962.28 700.15, 2016 806.43z" fill="#25467d"></path><path d="M2080 1080L0 1080 L0 893.22Q101.67 834.89, 160 936.56Q206.84 823.39, 320 870.23Q373.39 763.62, 480 817.01Q603.42 780.43, 640 903.85Q755.88 859.73, 800 975.61Q829.98 909.59, 896 939.56Q970.47 918.03, 992 992.5Q1002.99 907.49, 1088 918.47Q1124.7 795.17, 1248 831.87Q1307.84 795.71, 1344 855.55Q1458.31 873.86, 1440 988.17Q1406.79 858.96, 1536 825.75Q1606 799.75, 1632 869.75Q1652.78 794.53, 1728 815.31Q1800.89 792.2, 1824 865.1Q1906.76 851.86, 1920 934.61Q1946.9 801.51, 2080 828.42z" fill="#356cb1"></path><path d="M2048 1080L0 1080 L0 1131.95Q71.13 1043.08, 160 1114.21Q213.78 1007.99, 320 1061.77Q363.3 945.07, 480 988.37Q517.95 930.32, 576 968.26Q653.6 949.86, 672 1027.46Q742.13 937.59, 832 1007.71Q885.66 901.38, 992 955.04Q1112.16 915.2, 1152 1035.37Q1225.03 948.39, 1312 1021.42Q1423.67 973.09, 1472 1084.76Q1498.89 951.65, 1632 978.54Q1690.66 941.2, 1728 999.86Q1824.58 936.44, 1888 1033.02Q1929.47 914.49, 2048 955.95z" fill="white"></path></g><defs><mask id="SvgjsMask1000"><rect width="1920" height="1080" fill="#ffffff"></rect></mask></defs></svg>